<svg width="24" height="24" viewBox="0 0 24 24" fill="none" xmlns="http://www.w3.org/2000/svg">
<path d="M11.5305 11.5288V8.67041H8.57047C8.4105 9.51374 8.31155 10.4674 8.28998 11.5288H11.5305Z" fill="white"/>
<path d="M11.5303 7.72803V4C10.4312 4.2751 9.38075 5.53536 8.78607 7.72803H11.5303Z" fill="white"/>
<path d="M7.3516 12.4712H4C4.05707 13.4586 4.29295 14.4135 4.69241 15.2982H7.617C7.46314 14.4278 7.37367 13.481 7.3516 12.4712Z" fill="white"/>
<path d="M4 11.5288H7.35063C7.37048 10.507 7.45938 9.54946 7.61478 8.67041H4.70681C4.29871 9.564 4.05773 10.5297 4 11.5288V11.5288Z" fill="white"/>
<path d="M12.4697 4.00391V7.72801H15.2058C14.9807 6.90698 14.7112 6.28924 14.4625 5.83818C13.9064 4.82978 13.2119 4.19545 12.4697 4.00391V4.00391Z" fill="white"/>
<path d="M11.5304 12.4712H8.29089C8.31553 13.5703 8.42034 14.5061 8.57036 15.2982H11.5304V12.4712H11.5304Z" fill="white"/>
<path d="M15.2843 5.38211C15.6551 6.05454 15.9533 6.84265 16.1759 7.72817H18.7844C18.467 7.22486 18.0913 6.75278 17.6605 6.32056C16.7877 5.44471 15.7518 4.79572 14.6237 4.40186C14.8614 4.68864 15.0823 5.01576 15.2843 5.38211V5.38211Z" fill="white"/>
<path d="M15.7092 11.5288C15.6842 10.4151 15.5769 9.4692 15.4237 8.67041H12.4697V11.5288H15.7092Z" fill="white"/>
<path d="M16.1933 16.2406C15.9704 17.1451 15.6685 17.9488 15.2909 18.6322C15.0935 18.9896 14.878 19.3092 14.6462 19.5905C15.7656 19.1958 16.7934 18.5496 17.6604 17.6796C18.1001 17.2385 18.4821 16.7556 18.8036 16.2406H16.1933Z" fill="white"/>
<path d="M7.81459 7.72807C8.0368 6.83642 8.33598 6.04344 8.70911 5.36797C8.90655 5.01057 9.12209 4.69084 9.3539 4.40955C8.23455 4.80417 7.20665 5.45043 6.33959 6.32043C5.90883 6.75265 5.53316 7.22473 5.21576 7.72804H7.81459V7.72807Z" fill="white"/>
<path d="M16.3772 8.67041C16.5345 9.54949 16.6261 10.5068 16.6485 11.5288H20C19.9422 10.5297 19.7012 9.564 19.2932 8.67041H16.3772Z" fill="white"/>
<path d="M8.71578 18.6182C8.34058 17.9378 8.03977 17.1389 7.81644 16.2406H5.19635C5.51785 16.7556 5.89987 17.2385 6.33952 17.6796C7.21237 18.5554 8.24823 19.2044 9.37632 19.5983C9.13858 19.3116 8.91776 18.9845 8.71578 18.6182Z" fill="white"/>
<path d="M12.4697 12.4712V15.2982H15.4357C15.5922 14.4626 15.689 13.5195 15.7103 12.4712H12.4697Z" fill="white"/>
<path d="M20 12.4712H16.6495C16.6299 13.4809 16.5429 14.4278 16.3909 15.2982H19.3076C19.7071 14.4134 19.943 13.4586 20 12.4712V12.4712Z" fill="white"/>
<path d="M12.4697 16.2406V20.0001C13.5741 19.7237 14.6296 18.4529 15.2227 16.2406H12.4697Z" fill="white"/>
<path d="M11.5306 19.9961V16.2406H8.78595C9.01272 17.0774 9.28593 17.7052 9.53781 18.162C10.0939 19.1703 10.7884 19.8046 11.5306 19.9961Z" fill="white"/>
</svg>
